<?xml version="1.0" encoding="utf-8"?>
<!-- Generator: Adobe Illustrator 21.0.0, SVG Export Plug-In . SVG Version: 6.00 Build 0)  -->
<svg version="1.1" xmlns="http://www.w3.org/2000/svg" xmlns:xlink="http://www.w3.org/1999/xlink" x="0px" y="0px"
	 viewBox="0 0 841.9 595.3" style="enable-background:new 0 0 841.9 595.3;" xml:space="preserve">
<style type="text/css">
	.st0{fill:#2EAFFF;stroke:#2EAFFF;stroke-miterlimit:10;}
	.st1{fill:#006DD7;stroke:#006DD7;stroke-width:0.5;stroke-miterlimit:10;}
	.st2{font-family:'Bahnschrift';}
	.st3{font-size:25.8951px;}
	.st4{font-family:'LithosPro-Regular';}
	.st5{font-size:12px;}
	.st6{fill:#FFFFFF;}
	.st7{fill:#006DD7;}
</style>
<g id="fall">
	<path class="st0" d="M238.9,300.1c7.6-0.3,12.1,7.4,16.5,15.5l1,22.8l-1.3,0.7C248,329.8,238.9,320.1,238.9,300.1z"/>
	<path class="st0" d="M243.7,298.1c14.7-0.6,26,3.8,29.6,19.4l0.8,35.6l-12.3-7.3l0-29.9C259.5,307.7,252.6,302.3,243.7,298.1z"/>
	<path class="st0" d="M262,298.1c9.3,4.5,15.7,10.6,17.9,19.1l1.3,39.1l11.3,3.4v-40.9C287.3,305.7,278.7,296.9,262,298.1z"/>
	<path class="st0" d="M279.5,298.1H329c-9,3.5-15.2,10-18.5,19.6l-0.5,44.3l-11.4-0.2l-0.2-44C294.6,306.7,287.9,300.8,279.5,298.1z
		"/>
	<path class="st0" d="M346.8,299.2c-7.9,1.7-14,6.7-17.9,15.9l-0.8,41.6l-11.5,3v-42C322.6,302.5,333.1,297.3,346.8,299.2z"/>
	<path class="st0" d="M364.6,299.2c-8.2,3-14.3,8.2-17.8,16l-0.9,31.6l-10,6.3l-1.5-33.5C340.4,302.1,350.9,296.7,364.6,299.2z"/>
	<path class="st0" d="M369,300.1c-8.2,0-13.4,9.7-16.6,18.5v19.9h2.1C363.1,329.6,370.2,313.8,369,300.1z"/>
	<path class="st1" d="M238.9,295.5c0-36.8,29.1-66.6,65.1-66.6s65.1,29.8,65.1,66.6"/>
</g>
<g id="text">
	<text transform="matrix(1 0 0 1 381.4871 296.0795)"><tspan x="0" y="0" class="st2 st3">ONTARIO </tspan><tspan x="109.2" y="0" class="st1 st2 st3">SUMMER</tspan></text>
	<text transform="matrix(1 0 0 1 409.717 322.2216)" class="st4 st5">Find Yourself At Home</text>
</g>
<g id="top">
	<path id="cntower_x5F_ap" class="st6" d="M273.9,293.8h6.5l-0.6-15.2h3.1c1.5-0.6,1.4-2,0.4-2.7l0.7-1.1v-3.4h-1.2
		c-0.1-0.1-0.3-0.6-0.6-1.2l0-0.4h0.2V268h-2.3l-0.1-1.5H279v-2.3h-0.6l-0.1-6.7h0.5c0.8-0.4,0.8-1.6,0-2.1h-0.7v-6.6h-0.3v-4h-0.3
		l0-3.7h-0.1l0-3.9h-0.7l0.1,3.9h-0.1l0.1,3.8h-0.4l0,4l-0.4,0l0.1,6.7l-0.6,0c-1.1,0.3-0.8,2.1-0.1,2.2h0.5l0.1,6.7h-0.7v2.3h-1.1
		l0,1.5c0,0-2.1,0.1-2.1,0.1c0,0,0,1.6,0,1.6l0.2,0.1l0,0.4c-0.1,0.4-0.2,0.9-0.4,1.2l-1.7,0v3.4l0.7,1.1h0.1v0.2
		c-0.7,0.3-0.7,1.9,0.4,2.5l3.1,0.1L273.9,293.8z"/>
	<polygon id="cntoer_x5F_2" class="st1" points="273.1,270.3 281.7,270.3 281.7,271.2 273.1,271.2 	"/>
	<rect id="cntower_x5F_in" x="275.4" y="267" class="st7" width="3.4" height="0.6"/>
	<polygon id="cntower" class="st6" points="273.6,296.1 273.9,293.8 280.4,293.8 280.9,296.1 	"/>
	<path id="seagull_x5F_2" class="st6" d="M288.3,240.6h16.1v2.3l1.7,2h1.9l1.2,1.7l5.3,0.4c2.7,1.1,4.1,3.2,5.2,5.6l-1.3,0.4
		c-1.7-2.3-4-3.9-6.7-5l-3.2-0.1l-1.5,1l-2.4-0.1c0.1,0.8-0.4,1-1,1.6c-0.6,1-0.7,0.6-1.3-0.2l-3.3-3.9c2.7,0.6,5.2,2,3.8-1.1
		c-0.8-2.6-3.6-3.7-7.2-4.4L288.3,240.6z"/>
	<path id="seagull_x5F_left" class="st6" d="M251,256h8.1v1.2l0.8,1h1l0.6,0.8l2.7,0.2c1.4,0.5,2.1,1.6,2.6,2.8l-0.7,0.2
		c-0.8-1.2-2-1.9-3.4-2.5l-1.6,0l-0.7,0.5l-1.2-0.1c0.1,0.4-0.2,0.5-0.5,0.8c-0.3,0.5-0.4,0.3-0.6-0.1l-1.6-1.9
		c1.3,0.3,2.6,1,1.9-0.5c-0.4-1.3-1.8-1.9-3.6-2.2L251,256z"/>
	<path id="seagull_x5F_1" class="st6" d="M309,258.5h4.8v0.7l0.5,0.6h0.6l0.4,0.5l1.6,0.1c0.8,0.3,1.2,0.9,1.5,1.7l-0.4,0.1
		c-0.5-0.7-1.2-1.2-2-1.5l-1,0l-0.4,0.3l-0.7,0c0,0.2-0.1,0.3-0.3,0.5c-0.2,0.3-0.2,0.2-0.4-0.1l-1-1.1c0.8,0.2,1.6,0.6,1.1-0.3
		c-0.2-0.8-1.1-1.1-2.1-1.3L309,258.5z"/>
</g>
<g id="图层_4">
	
		<image style="display:none;overflow:visible;" width="1280" height="640" xlink:href="../v2-a8e9140837719b61159c99f05dec9583_1200x500.jpg"  transform="matrix(0.5899 0 0 0.5899 97.2276 228.8574)">
	</image>
	<path class="st6" d="M333.4,296c-2.9-6.6-1.3-14.6,5.4-24.1c1-1.5,2.2-2.2,3.6-2l0.3-0.4l-1-0.3l-1.6,0.1c-1.1,0.2-2-0.1-2.9-0.6
		c-1.1-0.7-2.1-1.6-2.8-2.6l2.1-0.5c1.2,0,2.5,0.4,3.8,1l2.6,1.2c0.4-0.4,0.7-0.3,1-0.3c0.1-0.1,0.1-0.3-0.2-0.5
		c-3.4-1.3-6.3-3.3-8.6-5.9c-2-2-3.4-4.3-4.2-7c0.4-1.1,1-1.2,1.8-0.5c0.7,3.1,2.9,5.8,5.6,8.4c0.5,0.3,0.8,0.4,0.3-0.3
		c-0.7-1.4-1.4-3.5-2-5.7c0.1-1.5,0.9-1.5,1.5-0.2c2.7,9.4,9.9,13.4,18.5,9.6l2.9-2.5c0.9-0.4,1.4-0.2,1,1l-2,1.7l0.3,0.4l2.5-1.2
		c1.7-0.9,2.2-0.4,1.3,1.3c-4.5,2.7-9.4,2.7-14.4,2.2c0.6,0.7,1.3,1.4,2,1.9l2.8,0.8l0.6,0.3c1-0.6,1.2-0.3,1.2,0.5l-0.5,1.3
		c-0.3,0.6-0.5,0.4-0.6,0l-1.1-0.3c-0.7,0.4-1.4,0.4-2.1,0.1c0,0.3,0.1,0.5,0.5,0.6l1,0.3l0.7-0.2c0.9-0.2,1,0.1,0.7,0.7
		c-0.6,0.5-1.5,0.7-2.6,0.7l-2.9,0.1c-3.5,1-6.4,8,0,11l4.6,1.5c3.7,1,6.7,2.7,6.6,8.1"/>
</g>
</svg>
